<?xml version="1.0" encoding="UTF-8"?>
<!DOCTYPE svg PUBLIC "-//W3C//DTD SVG 1.1//EN" "http://www.w3.org/Graphics/SVG/1.1/DTD/svg11.dtd">
<!-- Creator: CorelDRAW X7 -->
<svg xmlns="http://www.w3.org/2000/svg" xml:space="preserve" width="211.667mm" height="211.667mm" version="1.1" style="shape-rendering:geometricPrecision; text-rendering:geometricPrecision; image-rendering:optimizeQuality; fill-rule:evenodd; clip-rule:evenodd"
viewBox="0 0 21167 21167"
 xmlns:xlink="http://www.w3.org/1999/xlink">
 <defs>
  <style type="text/css">
   <![CDATA[
    .fil0 {fill:none}
    .fil3 {fill:#C4E9FF}
    .fil18 {fill:#E09011}
    .fil2 {fill:#E74C3C}
    .fil16 {fill:#E89511}
    .fil8 {fill:#ECF0F1}
    .fil6 {fill:#F1C40F}
    .fil17 {fill:#F39C12}
    .fil15 {fill:#FFC229}
    .fil19 {fill:#FFCF82}
    .fil12 {fill:#363635;fill-rule:nonzero}
    .fil7 {fill:#3C3C3B;fill-rule:nonzero}
    .fil13 {fill:#454545;fill-rule:nonzero}
    .fil1 {fill:#4D4D4D;fill-rule:nonzero}
    .fil11 {fill:#B0D1E5;fill-rule:nonzero}
    .fil20 {fill:#BA3D30;fill-rule:nonzero}
    .fil4 {fill:#C63929;fill-rule:nonzero}
    .fil10 {fill:#CF4436;fill-rule:nonzero}
    .fil22 {fill:#D0860F;fill-rule:nonzero}
    .fil14 {fill:#D4D8D8;fill-rule:nonzero}
    .fil23 {fill:#DA8C10;fill-rule:nonzero}
    .fil21 {fill:#E5AE25;fill-rule:nonzero}
    .fil24 {fill:#E5BA75;fill-rule:nonzero}
    .fil9 {fill:#E5E5E5;fill-rule:nonzero}
    .fil5 {fill:white;fill-rule:nonzero}
   ]]>
  </style>
 </defs>
 <g id="border">
  <metadata id="CorelCorpID_0Corel-Layer"/>
  <rect class="fil0" width="21167" height="21167"/>
 </g>
 <g id="Camada_x0020_1">
  <metadata id="CorelCorpID_1Corel-Layer"/>
  <g id="_2318312614800">
   <path class="fil1" d="M5699 16427l-1578 0c-280,0 -506,-227 -506,-506l0 -4089c0,-279 226,-505 506,-505l1578 0c280,0 506,226 506,505l0 4089c0,279 -226,506 -506,506z"/>
   <path class="fil1" d="M19241 16427l-1579 0c-279,0 -506,-227 -506,-506l0 -4089c0,-279 227,-505 506,-505l1579 0c279,0 506,226 506,505l0 4089c0,279 -227,506 -506,506z"/>
   <path class="fil1" d="M5699 16427l-1578 0c-280,0 -506,-227 -506,-506l0 -4089c0,-279 226,-505 506,-505l1578 0c280,0 506,226 506,505l0 4089c0,279 -226,506 -506,506z"/>
   <path class="fil1" d="M19241 16427l-1579 0c-279,0 -506,-227 -506,-506l0 -4089c0,-279 227,-505 506,-505l1579 0c279,0 506,226 506,505l0 4089c0,279 -227,506 -506,506z"/>
   <path class="fil2" d="M18071 6963c-2032,-96 -4068,-144 -6103,-144 -66,0 -132,0 -198,0 -30,0 -60,0 -89,0 -30,0 -60,0 -89,0 -66,0 -133,0 -199,0 -2035,0 -4070,48 -6103,144 -261,12 -496,-149 -473,-360 102,-966 606,-2383 1038,-3139 108,-188 212,-394 474,-407 2032,-95 3029,-144 5064,-144 68,0 133,0 199,1 29,-1 59,-1 89,-1 30,0 59,0 89,1 65,-1 131,-1 198,-1 2035,0 3032,49 5065,144 261,13 365,219 473,407 433,756 936,2173 1039,3139 22,211 -212,372 -474,360zm2530 -584l-1087 0c-145,0 -263,117 -263,262l0 541c-42,17 -85,43 -128,69 -15,-57 -29,-120 -41,-198l-144 -793 -9 -51 -9 -46 -1 0c-195,-1013 -649,-2218 -1029,-2888l-15 -28c-116,-207 -333,-592 -837,-616 -1795,-131 -3580,-197 -5357,-197 -1777,0 -3563,66 -5358,197 -504,24 -720,409 -837,616l-15 28c-379,670 -834,1875 -1029,2888l-1 0 -8 46 -9 51 -145 793c-11,78 -25,141 -41,198 -43,-26 -86,-52 -128,-69l0 -541c0,-145 -117,-262 -262,-262l-1087 0c-161,0 -283,145 -255,304l107 602c27,152 159,263 314,263l939 0 37 -7c26,25 55,48 86,72 -244,102 -921,467 -921,1643l208 4119c0,453 506,1064 873,1064 2478,294 4990,429 7532,421 2542,8 5053,-127 7532,-421 366,0 872,-611 872,-1064l209 -4119c0,-1176 -677,-1541 -922,-1643 31,-24 60,-47 86,-72l38 7 938 0c155,0 287,-111 315,-263l106 -602c28,-159 -94,-304 -254,-304z"/>
   <path class="fil3" d="M17033 3057c-2033,-95 -3030,-144 -5065,-144 -67,0 -133,0 -198,1 -30,-1 -59,-1 -89,-1 -30,0 -60,0 -89,1 -66,-1 -131,-1 -199,-1 -2035,0 -3032,49 -5064,144 -262,13 -366,219 -474,407 -432,756 -936,2173 -1038,3139 -23,211 212,372 473,360 2033,-96 4068,-144 6103,-144 66,0 133,0 199,0 29,0 59,0 89,0 29,0 59,0 89,0 66,0 132,0 198,0 2035,0 4071,48 6103,144 262,12 496,-149 474,-360 -103,-966 -606,-2383 -1039,-3139 -108,-188 -212,-394 -473,-407z"/>
   <path class="fil4" d="M11819 7250c-3072,0 -6184,52 -6786,151 -173,29 -274,164 -178,279l1770 2143c251,303 681,486 1142,486l7827 0c462,0 892,-183 1142,-486l1771 -2143c96,-115 -6,-248 -179,-279 -568,-102 -3520,-151 -6509,-151zm1 211c3379,0 5979,59 6471,148l2 0 -1719 2080c-209,253 -584,410 -980,410l-7827 0c-395,0 -771,-157 -980,-410l-1719 -2080c531,-87 3306,-148 6752,-148l0 0z"/>
   <path class="fil5" d="M17330 10771l2069 -87c158,-6 247,-125 314,-290 82,-452 107,-962 95,-1508 4,-192 -144,-353 -336,-366l-541 -36c-290,-19 -568,117 -731,357l-1068 1575c-105,155 11,363 198,355z"/>
   <path class="fil6" d="M17475 12522c-107,7 -198,-105 -198,-247l0 -586c0,-120 99,-218 226,-223l1750 -71c119,-5 216,89 207,201l-40 536c-11,148 -103,263 -216,271l-1729 119z"/>
   <path class="fil7" d="M17335 5462l-4516 615 0 -1c-11,-80 44,-152 123,-163l4230 -577c38,-5 77,6 107,29 31,23 51,57 56,95l0 2z"/>
   <polygon class="fil1" points="15247,5723 13369,6850 13289,6727 15205,5658 "/>
   <path class="fil1" d="M13149 6776c0,63 63,114 140,114 77,0 140,-51 140,-114 0,-63 -63,-114 -140,-114 -77,0 -140,51 -140,114z"/>
   <path class="fil7" d="M12454 5666l-4516 617 0 -2c-11,-79 44,-151 123,-162l4230 -578c38,-5 76,5 107,28 31,23 50,57 56,95l0 2z"/>
   <path class="fil1" d="M8279 6858c4,63 69,110 146,106 78,-5 137,-60 134,-122 -4,-63 -70,-110 -147,-106 -77,5 -137,59 -133,122z"/>
   <polygon class="fil1" points="10441,5894 8490,6890 8419,6762 10403,5825 "/>
   <path class="fil6" d="M5886 12522c108,7 198,-105 198,-247l0 -586c0,-120 -99,-218 -226,-223l-1749 -71c-120,-5 -216,89 -208,201l40 536c11,148 103,263 216,271l1729 119z"/>
   <path class="fil5" d="M6096 10771l-2069 -87c-158,-6 -247,-125 -314,-290 -83,-452 -107,-962 -96,-1508 -3,-192 145,-353 336,-366l542 -36c289,-19 567,117 730,357l1069 1575c105,155 -11,363 -198,355z"/>
   <path class="fil8" d="M15136 13438c-2320,144 -4591,144 -6910,0 -253,-16 -487,-224 -510,-462 -56,-590 -56,-1184 0,-1774 23,-238 257,-445 510,-462 2319,-144 4590,-144 6910,0 252,17 487,224 510,462 56,590 56,1184 0,1774 -23,238 -258,446 -510,462z"/>
   <path class="fil1" d="M8632 13093c0,87 -119,158 -265,158l-29 0c-147,0 -266,-71 -266,-158l0 -2007c0,-88 119,-159 266,-159l29 0c146,0 265,71 265,159l0 2007z"/>
   <path class="fil1" d="M9584 13093c0,87 -119,158 -267,158l-28 0c-147,0 -266,-71 -266,-158l0 -2007c0,-88 119,-159 266,-159l28 0c148,0 267,71 267,159l0 2007z"/>
   <path class="fil1" d="M10534 13093c0,87 -119,158 -265,158l-29 0c-147,0 -266,-71 -266,-158l0 -2007c0,-88 119,-159 266,-159l29 0c146,0 265,71 265,159l0 2007z"/>
   <path class="fil1" d="M11485 13093c0,87 -119,158 -266,158l-28 0c-147,0 -266,-71 -266,-158l0 -2007c0,-88 119,-159 266,-159l28 0c147,0 266,71 266,159l0 2007z"/>
   <path class="fil1" d="M12436 13093c0,87 -119,158 -266,158l-28 0c-147,0 -266,-71 -266,-158l0 -2007c0,-88 119,-159 266,-159l28 0c147,0 266,71 266,159l0 2007z"/>
   <path class="fil1" d="M13387 13093c0,87 -119,158 -266,158l-28 0c-147,0 -266,-71 -266,-158l0 -2007c0,-88 119,-159 266,-159l28 0c147,0 266,71 266,159l0 2007z"/>
   <path class="fil1" d="M14338 13093c0,87 -119,158 -266,158l-28 0c-147,0 -266,-71 -266,-158l0 -2007c0,-88 119,-159 266,-159l28 0c147,0 266,71 266,159l0 2007z"/>
   <path class="fil1" d="M15289 13093c0,87 -119,158 -266,158l-28 0c-147,0 -266,-71 -266,-158l0 -2007c0,-88 119,-159 266,-159l28 0c147,0 266,71 266,159l0 2007z"/>
   <path class="fil8" d="M11681 13798c-2863,-5 -5552,-215 -8346,-464 -307,0 -307,474 -307,474 0,402 0,973 817,1032 2580,248 5193,369 7836,374 2643,-5 5255,-126 7836,-374 817,-59 817,-630 817,-1032 0,0 0,-474 -307,-474 -2795,249 -5483,459 -8346,464z"/>
   <path class="fil9" d="M11681 15214l0 0zm-42 0c-1,0 -2,0 -3,0 1,0 2,0 3,0zm-6158 -11957l5 -10c107,-190 298,-530 719,-603 -421,73 -612,413 -719,603l-5 10z"/>
   <path class="fil10" d="M11681 13798c-312,0 -622,-3 -930,-9 36,-82 72,-165 107,-249 274,4 548,6 823,6l0 252 0 0zm-1959 -34l0 0c40,-82 79,-165 117,-249l0 0c-38,84 -77,167 -117,249zm1073 -3125c26,-107 50,-215 74,-323 0,-1 0,-2 0,-3 -24,109 -48,218 -74,326l0 0zm218 -1045c1,-4 1,-7 2,-11 109,-593 196,-1192 268,-1788 0,0 0,0 0,0 -73,600 -160,1202 -270,1799zm274 -2372c-28,-9 -55,-18 -82,-27 -440,-148 -850,-268 -1252,-368l0 0c427,106 862,235 1334,395zm-6703 -1672c228,-852 582,-1736 887,-2275l10 -18 5 -10c107,-190 298,-530 719,-603 38,-7 77,-11 118,-13 1795,-131 3581,-197 5358,-197l0 479c-30,0 -60,0 -89,1 -66,-1 -131,-1 -199,-1 -2035,0 -3032,49 -5064,144 -262,13 -366,219 -474,407 -286,501 -604,1290 -815,2047 -156,12 -307,25 -456,39z"/>
   <path class="fil11" d="M9953 6827c-131,-32 -261,-62 -392,-90 0,0 0,0 -1,-1 0,0 -2,0 -3,0 -13,-3 -27,-6 -40,-9 145,31 290,64 436,100l0 0zm1728 -477c-463,-158 -892,-290 -1310,-399l1310 -179 0 578zm-1695 -494c-1109,-258 -2185,-364 -3648,-410 -468,14 -896,35 -1298,65 211,-757 529,-1546 815,-2047 108,-188 212,-394 474,-407 2032,-95 3029,-144 5064,-144 68,0 133,0 199,1 29,-1 59,-1 89,-1l0 2711 -1695 232z"/>
   <path class="fil12" d="M10371 5951c-9,-3 -19,-5 -28,-7l98 -50 -38 -69 -184 87c-78,-20 -155,-38 -233,-56l1695 -232 0 148 -1310 179z"/>
   <path class="fil13" d="M10343 5944c-41,-11 -82,-22 -124,-32l184 -87 38 69 -98 50z"/>
   <path class="fil14" d="M11681 13546c-275,0 -549,-2 -823,-6 48,-112 93,-225 138,-340 48,32 118,51 195,51l28 0c147,0 266,-71 266,-158l0 -1354c70,-245 135,-491 196,-740l0 2547zm-1842 -31l0 0c54,-119 106,-238 157,-359 0,0 0,0 0,0 -51,121 -103,240 -157,359zm695 -1884l0 0c97,-327 183,-658 261,-992l0 0c-78,334 -164,665 -261,992z"/>
   <path class="fil13" d="M9996 13156c0,0 0,0 0,0 207,-494 385,-1004 538,-1525l0 0c-153,521 -331,1031 -538,1525z"/>
   <path class="fil13" d="M11219 13251l-28 0c-77,0 -147,-19 -195,-51 185,-474 347,-962 489,-1461l0 1354c0,87 -119,158 -266,158z"/>
   <path class="fil14" d="M11681 15214l0 0c-14,0 -28,0 -42,0 -1,0 -2,0 -3,0 -540,-1 -1079,-8 -1617,-19 274,-449 516,-919 732,-1406 308,6 618,9 930,9l0 1416 0 0zm-2772 -51l0 0c307,-443 576,-911 813,-1399l0 0c-237,488 -506,956 -813,1399z"/>
   <path class="fil15" d="M11346 7243c-108,995 -249,2005 -460,2992 -81,375 -171,748 -273,1115 -76,277 -160,550 -250,821 -129,391 -274,773 -436,1143 -752,1732 -1879,3247 -3590,4315 -3567,-2222 -4586,-6405 -5007,-10386 1699,-581 2902,-776 5007,-842 2105,66 3310,261 5009,842z"/>
   <path class="fil16" d="M6338 6400c-2104,68 -3309,261 -5006,842l352 229 0 -2c1517,-499 2652,-677 4654,-742 2001,65 3136,243 4654,742l-1 2 352 -229c-1697,-581 -2902,-774 -5005,-842z"/>
   <path class="fil17" d="M6338 6400c-2105,68 -3310,262 -5008,842 422,3983 1439,8165 5008,10387 3568,-2222 4585,-6404 5007,-10387 -1698,-580 -2903,-774 -5007,-842zm0 12332c-4395,-2390 -5589,-7262 -6031,-12136 2230,-829 3593,-1074 6031,-1150 2437,76 3800,321 6029,1150 -441,4874 -1635,9746 -6029,12136z"/>
   <polygon class="fil17" points="11023,9430 6338,10095 6338,9018 11023,8353 "/>
   <path class="fil17" d="M10886 10235c-81,375 -171,748 -273,1115l-4276 608 0 -1077 4549 -646z"/>
   <path class="fil17" d="M10363 12171c-129,391 -274,773 -436,1143l-3590 508 0 -1077 4026 -574z"/>
   <polygon class="fil17" points="1647,9430 6333,10095 6333,9018 1647,8353 "/>
   <path class="fil17" d="M1784 10235c81,375 172,748 274,1115l4276 608 0 -1077 -4550 -646z"/>
   <path class="fil17" d="M2307 12171c130,391 274,773 436,1143l3591 508 0 -1077 -4027 -574z"/>
   <path class="fil18" d="M11343 7242l-352 229c-387,3441 -1297,7561 -4653,9769l0 389c3568,-2222 4585,-6404 5007,-10387l-2 0z"/>
   <path class="fil19" d="M1684 7471l-352 -229 -2 0c422,3983 1439,8165 5008,10387l0 -389c-3357,-2208 -4268,-6328 -4654,-9769z"/>
   <path class="fil9" d="M6338 18732c-4395,-2390 -5589,-7262 -6031,-12136l0 0c442,4874 1636,9746 6031,12136l0 0zm-5008 -11490l0 0c427,-146 823,-267 1210,-369l0 0c-386,101 -782,223 -1208,369l0 0 0 0 0 0 -2 0z"/>
   <path class="fil20" d="M2540 6873l0 0c258,-67 512,-125 768,-176 -3,1 -7,1 -11,2 -252,50 -503,108 -757,174z"/>
   <path class="fil21" d="M6338 17240c-1499,-986 -2511,-2353 -3205,-3871l3201 453 0 -1077 -3659 -521c-95,-273 -181,-547 -260,-823l3919 557 0 -1077 -4200 -597c-60,-269 -113,-539 -162,-808l4361 619 0 -1077 -4536 -644c-43,-305 -80,-607 -113,-903l-352 -229 0 0 352 229 0 -2c1517,-499 2652,-677 4654,-742l0 4154 -1 0 0 1077 1 0 0 787 -1 0 0 1077 1 0 0 3418zm-3041 -10541c4,-1 8,-1 11,-2 142,-28 284,-54 429,-77 -148,24 -295,50 -440,79zm442 -79c2,-1 4,-1 7,-2 -3,1 -5,1 -7,2zm12 -3c1,0 2,0 4,0 -2,0 -3,0 -4,0zm9 -1c1,0 2,0 4,-1 -2,1 -3,1 -4,1zm12 -2c0,0 0,0 1,0 -1,0 -1,0 -1,0z"/>
   <path class="fil22" d="M1684 7471l-352 -229 0 0c426,-146 822,-268 1208,-369l0 0c254,-66 505,-124 757,-174 145,-29 292,-55 440,-79 1,0 1,0 2,0 2,-1 4,-1 7,-2 1,0 3,0 5,-1 1,0 2,0 4,0 1,0 3,-1 5,-1 1,0 2,0 4,-1 3,0 5,-1 8,-1 0,0 0,0 1,0 750,-120 1553,-181 2565,-214l0 327c-2002,65 -3137,243 -4654,742l0 2z"/>
   <path class="fil23" d="M6338 18732c-4395,-2390 -5589,-7262 -6031,-12136 2230,-829 3593,-1074 6031,-1150l0 954c-1012,33 -1815,94 -2565,214 -1,0 -1,0 -1,0 -3,0 -5,1 -8,1 -2,1 -3,1 -4,1 -2,0 -4,1 -5,1 -2,0 -3,0 -4,0 -2,1 -4,1 -5,1 -3,1 -5,1 -7,2 -1,0 -1,0 -2,0 -145,23 -287,49 -429,77 -256,51 -510,109 -768,176l0 0c-387,102 -783,223 -1210,369l0 0c106,997 248,2006 459,2993l-5 0c81,375 172,748 274,1115l3 0c76,277 159,551 249,821l-3 0c130,391 274,773 436,1143l4 0c753,1731 1878,3248 3591,4315l0 1103z"/>
   <polygon class="fil23" points="6337,11958 6337,10881 6338,10881 6338,11958 "/>
   <polygon class="fil23" points="6337,13822 6337,12745 6338,12745 6338,13822 "/>
   <path class="fil23" d="M6333 10095l-4361 -619c-67,-370 -125,-738 -175,-1102l4536 644 0 1077z"/>
   <path class="fil23" d="M6334 11958l-3919 -557c-106,-371 -199,-744 -281,-1117l4200 597 0 1077zm-4273 -608l-3 0c-102,-367 -193,-740 -274,-1115l5 0c80,376 170,748 272,1115z"/>
   <path class="fil23" d="M6334 13822l-3201 -453c-171,-374 -323,-757 -458,-1145l3659 521 0 1077zm-3587 -508l-4 0c-162,-370 -306,-752 -436,-1143l3 0c130,390 275,771 437,1143z"/>
   <path class="fil24" d="M6338 17629c-1713,-1067 -2838,-2584 -3591,-4315 -162,-372 -307,-753 -437,-1143 -90,-270 -173,-544 -249,-821 -102,-367 -192,-739 -272,-1115 -211,-987 -353,-1996 -459,-2993l0 0 2 0 0 0 352 229c33,296 70,598 113,903 50,364 108,732 175,1102 49,269 102,539 162,808 82,373 175,746 281,1117 79,276 165,550 260,823 135,388 287,771 458,1145 694,1518 1706,2885 3205,3871l0 389z"/>
  </g>
 </g>
</svg>
