<?xml version="1.0" encoding="UTF-8"?>
<!DOCTYPE svg PUBLIC "-//W3C//DTD SVG 1.1//EN" "http://www.w3.org/Graphics/SVG/1.1/DTD/svg11.dtd">
<!-- Creator: CorelDRAW X7 -->
<svg xmlns="http://www.w3.org/2000/svg" xml:space="preserve" width="211.667mm" height="211.667mm" version="1.1" style="shape-rendering:geometricPrecision; text-rendering:geometricPrecision; image-rendering:optimizeQuality; fill-rule:evenodd; clip-rule:evenodd"
viewBox="0 0 21167 21167"
 xmlns:xlink="http://www.w3.org/1999/xlink">
 <defs>
  <style type="text/css">
   <![CDATA[
    .fil0 {fill:none}
    .fil8 {fill:#C4E9FF}
    .fil4 {fill:#C94234}
    .fil20 {fill:#E09011}
    .fil6 {fill:#E74C3C}
    .fil21 {fill:#E89511}
    .fil9 {fill:#F2F2F2}
    .fil18 {fill:#F39C12}
    .fil17 {fill:#FFC229}
    .fil19 {fill:#FFCF82}
    .fil1 {fill:#FFED00}
    .fil7 {fill:white}
    .fil12 {fill:#B0D1E5;fill-rule:nonzero}
    .fil14 {fill:#B53B2F;fill-rule:nonzero}
    .fil26 {fill:#C9810F;fill-rule:nonzero}
    .fil22 {fill:#CE9C61;fill-rule:nonzero}
    .fil15 {fill:#CF4436;fill-rule:nonzero}
    .fil27 {fill:#D0860F;fill-rule:nonzero}
    .fil24 {fill:#DA8C10;fill-rule:nonzero}
    .fil23 {fill:#E5AE25;fill-rule:nonzero}
    .fil11 {fill:#E5AE6C;fill-rule:nonzero}
    .fil25 {fill:#E5BA75;fill-rule:nonzero}
    .fil16 {fill:#E5D2BB;fill-rule:nonzero}
    .fil13 {fill:#E5E5E5;fill-rule:nonzero}
    .fil3 {fill:#FF7800;fill-rule:nonzero}
    .fil5 {fill:#FFC278;fill-rule:nonzero}
    .fil10 {fill:#FFEAD0;fill-rule:nonzero}
    .fil2 {fill:#FFFFD9;fill-rule:nonzero}
   ]]>
  </style>
 </defs>
 <g id="border">
  <metadata id="CorelCorpID_0Corel-Layer"/>
  <rect class="fil0" width="21167" height="21167"/>
 </g>
 <g id="Camada_x0020_1">
  <metadata id="CorelCorpID_1Corel-Layer"/>
  <g id="_2318315368864">
   <path class="fil1" d="M15770 9813l1873 83 -195 -458c-216,-507 -190,-1085 71,-1588l8 -16c316,-609 281,-1319 -91,-1875 -160,-239 -184,-541 -64,-809l412 -923 -866 744c-335,288 -548,670 -619,1075l-156 -403c-97,-250 -77,-530 56,-768l5 -10c332,-595 317,-1310 -39,-1885l-621 -1006 91 1062c27,308 -106,611 -355,810 -155,124 -287,268 -399,423 54,-629 -144,-1264 -572,-1767 -243,-286 -325,-666 -221,-1019l359 -1215 -962 1037c-550,594 -737,1421 -493,2185l4 12c98,305 55,635 -117,906l-365 574c-33,-145 -33,-294 10,-435l3 -10c182,-595 23,-1256 -420,-1746l-775 -855 300 975c88,282 28,580 -160,797 -438,505 -557,1209 -315,1858l6 16c99,266 138,542 119,811 -100,-381 -314,-738 -628,-1018 -227,-203 -343,-494 -310,-779l111 -983 -603 894c-346,512 -377,1177 -83,1754l4 9c118,231 130,492 33,719l-231 543c-150,353 -106,765 117,1104l549 831 1986 148 3543 198z"/>
   <path class="fil2" d="M15842 9158l652 28c-7,-64 -11,-129 -13,-194l-476 -1230 -473 -1219 -155 -403c-90,-233 -128,-479 -115,-722l-438 609 -1029 1434 152 -1758 114 -1316c29,-334 -52,-663 -229,-948 172,542 96,1131 -211,1615l-364 573 -468 735 -623 978 -47 -206 -121 1704 -7 98 323 24 3528 198z"/>
   <path class="fil3" d="M12992 3489c-245,-764 -58,-1590 492,-2184l962 -1037 -358 1216c-105,352 -22,732 220,1018 429,502 628,1137 572,1767 112,-155 245,-298 400,-424 250,-199 383,-502 356,-809l-92 -1062 621 1006c356,577 371,1289 39,1885l-5 10c-134,238 -153,519 -56,768l155 403c73,-405 286,-788 621,-1074l865 -744 -412 923c-119,267 -95,570 63,808 373,555 407,1265 92,1876l-7 14c-262,504 -289,1081 -73,1588l196 458 -1873 -83 -3544 -196 -1985 -148 -548 -834c-225,-336 -269,-749 -119,-1102l233 -543c95,-226 83,-487 -34,-718l-5 -9c-293,-577 -261,-1244 83,-1755l603 -895 -111 984c-32,284 85,575 310,778 315,282 528,638 628,1018 19,-269 -20,-545 -119,-809l-5 -17c-242,-650 -123,-1353 315,-1859 187,-216 248,-514 160,-798l-300 -971 775 853c444,489 601,1151 420,1745l-3 10c-43,143 -43,290 -9,436l363 -575c172,-271 216,-601 119,-904l-5 -14zm194 1115l-364 572 -467 734 -194 -848c-51,-214 -44,-427 14,-623 116,-378 58,-793 -145,-1144 -27,240 -121,465 -284,652 -351,407 -446,965 -249,1490l7 17c116,313 165,638 140,965l-155 2194 -560 -2128c-84,-323 -261,-611 -516,-839 -201,-179 -339,-410 -402,-659 -129,349 -102,746 82,1110 170,334 187,707 49,1035l-233 543c-102,240 -70,523 87,761l451 681 1806 136 3536 198 1294 56c-225,-589 -186,-1248 112,-1825l10 -15c256,-494 230,-1056 -71,-1507 -138,-204 -206,-439 -201,-676 -140,184 -235,399 -276,625l-226 1287 -472 -1219 -155 -403c-136,-351 -107,-744 77,-1076 233,-417 260,-884 90,-1301 -66,283 -226,543 -463,734 -124,97 -235,216 -332,349l-771 1074 114 -1316c46,-543 -126,-1076 -487,-1501 -267,-315 -388,-717 -342,-1115 -417,495 -548,1145 -351,1758l4 12c131,407 73,848 -157,1212z"/>
   <polygon class="fil4" points="7465,8231 9017,7912 9007,5082 7465,5082 "/>
   <polygon class="fil5" points="17329,18475 17329,9986 11569,6576 5810,9986 5810,18475 "/>
   <polygon class="fil6" points="11569,6643 18167,10550 18629,9770 11569,5589 4509,9770 4972,10550 "/>
   <polygon class="fil7" points="12839,14390 15736,14390 15736,10384 12839,10384 "/>
   <polygon class="fil7" points="7402,14390 10300,14390 10300,10384 7402,10384 "/>
   <polygon class="fil8" points="13175,14050 15409,14050 15409,10724 13175,10724 "/>
   <polygon class="fil8" points="7730,14050 9964,14050 9964,10724 7730,10724 "/>
   <polygon class="fil7" points="13000,11833 15485,11833 15485,11511 13000,11511 "/>
   <polygon class="fil7" points="7653,11833 10139,11833 10139,11511 7653,11511 "/>
   <polygon class="fil7" points="14122,14211 14461,14211 14461,11511 14122,11511 "/>
   <polygon class="fil7" points="8677,14211 9017,14211 9017,11511 8677,11511 "/>
   <polygon class="fil9" points="12320,14926 16165,14926 16165,14390 12320,14390 "/>
   <polygon class="fil9" points="6974,14926 10818,14926 10818,14390 6974,14390 "/>
   <polygon class="fil10" points="5810,18475 17329,18475 17329,16607 5810,16607 "/>
   <path class="fil11" d="M6986 11826c-4,0 -8,0 -12,0l0 0c4,0 8,0 12,0z"/>
   <path class="fil12" d="M9964 12227c-1,0 -1,0 -1,0 -321,-91 -629,-162 -946,-218l0 0c318,56 626,128 947,218zm-1287 -271c-169,-24 -343,-44 -524,-61 181,17 355,37 524,61l0 0zm-524 -61c-12,-1 -25,-2 -37,-4 12,2 25,3 37,4zm-37 -4c-2,0 -5,0 -7,0 2,0 5,0 7,0zm-10 0c-2,-1 -3,-1 -4,-1 1,0 2,0 4,1zm-8 -1c-1,0 -3,-1 -4,-1 1,0 3,1 4,1zm-7 -1c-2,0 -3,0 -4,0 1,0 2,0 4,0zm-9 -1c-1,0 -2,0 -3,0 1,0 2,0 3,0zm-7 0c-1,0 -2,0 -3,-1 1,1 2,1 3,1zm-7 -1c-1,0 -2,0 -4,0 2,0 3,0 4,0zm-10 -1c0,0 -1,0 -1,0 0,0 1,0 1,0zm-8 0l0 0 0 0z"/>
   <path class="fil13" d="M9017 12009c-112,-19 -225,-37 -340,-53l0 0c115,16 228,34 340,53l0 0z"/>
   <path class="fil11" d="M10658 12446l-1 -1 0 0c1,0 1,0 1,1l0 0z"/>
   <polygon class="fil14" points="7465,8020 7465,5082 9007,5082 9014,7102 "/>
   <path class="fil11" d="M11569 16607l-1084 0c525,-1437 780,-3037 925,-4637 -401,-149 -764,-273 -1110,-375l0 -1211 -2898 0 0 756c-138,-6 -280,-12 -428,-16 -426,13 -808,33 -1164,65l0 -1135 5759 -3411 0 9964z"/>
   <polygon class="fil15" points="4972,10550 4509,9770 7465,8020 9014,7102 9014,7102 11569,5589 11569,6643 5810,10054 "/>
   <path class="fil13" d="M10300 11595c-54,-16 -108,-31 -161,-46l0 -38 -139 0c-12,-4 -24,-7 -36,-10l0 -777 -2234 0 0 434c-107,-7 -216,-12 -328,-18l0 -756 2898 0 0 1211z"/>
   <path class="fil12" d="M9964 11501c-724,-191 -1399,-290 -2234,-343l0 -434 2234 0 0 777z"/>
   <path class="fil13" d="M10139 11549c-47,-13 -93,-26 -139,-38l139 0 0 38z"/>
   <path class="fil16" d="M11569 18475l-1998 0c372,-578 672,-1206 914,-1868l1084 0 0 1868z"/>
   <path class="fil17" d="M10658 12444c-7,75 -16,148 -25,222 -23,211 -50,421 -80,634 -369,2658 -1206,5310 -3579,6786 -987,-614 -1710,-1433 -2240,-2371 -226,-396 -418,-812 -581,-1247 -480,-1264 -718,-2658 -863,-4024 1250,-425 2135,-568 3684,-618 1175,39 1967,129 2828,358 194,50 391,109 597,174 84,28 170,57 259,86z"/>
   <path class="fil18" d="M6974 11826c-1548,50 -2435,192 -3684,620 311,2930 1059,6006 3684,7641 2625,-1635 3373,-4711 3684,-7641 -1249,-428 -2136,-570 -3684,-620zm0 9073c-3233,-1759 -4112,-5343 -4436,-8929 1640,-610 2643,-790 4436,-846 1793,56 2796,236 4436,846 -325,3586 -1203,7170 -4436,8929z"/>
   <path class="fil18" d="M10633 12666c-23,211 -50,421 -80,634l-5819 4415c-226,-396 -418,-812 -581,-1247l5649 -4284c194,50 391,109 597,174l234 308z"/>
   <path class="fil19" d="M3550 12613l-259 -168 -1 1c311,2930 1059,6006 3684,7641l0 -286c-2469,-1624 -3139,-4656 -3424,-7188z"/>
   <path class="fil20" d="M10657 12445l-259 168c-285,2532 -955,5564 -3424,7188l0 286c2625,-1635 3373,-4711 3684,-7641l-1 -1z"/>
   <path class="fil21" d="M6974 11826c-1548,50 -2434,192 -3683,619l259 168 0 -1c1116,-367 1951,-498 3424,-546 1473,48 2308,179 3424,546l0 1 259 -168c-1249,-427 -2135,-569 -3683,-619z"/>
   <path class="fil13" d="M3290 12446l0 0c0,-1 0,-1 0,-1l0 0 0 1zm1094 -323c459,-110 911,-182 1426,-229l0 0c-510,47 -959,118 -1414,226 -4,1 -8,2 -12,3z"/>
   <path class="fil22" d="M5810 11894l0 0c10,-1 19,-2 29,-3 -10,1 -19,2 -29,3zm31 -3c2,-1 4,-1 5,-1 -1,0 -3,0 -5,1zm8 -1c1,0 3,0 5,-1 -2,1 -4,1 -5,1zm7 -1c2,0 3,0 5,0 -2,0 -3,0 -5,0zm8 -1c2,0 3,0 5,0 -2,0 -3,0 -5,0zm8 0c1,0 3,0 4,-1 -1,1 -3,1 -4,1zm7 -1c1,0 3,0 5,0 -2,0 -4,0 -5,0zm9 -1c1,0 2,0 3,0 -1,0 -2,0 -3,0zm8 0c1,0 2,0 2,0 0,0 -1,0 -2,0zm1066 -60c4,0 8,0 12,0l0 0c-4,0 -8,0 -12,0z"/>
   <path class="fil23" d="M6974 20086l0 -285c-896,-589 -1555,-1364 -2045,-2233l2045 -1552 0 4070zm-3684 -7641l0 0c390,-133 744,-239 1094,-322 4,-1 8,-2 12,-3 -354,84 -711,190 -1105,325l0 0 -1 0z"/>
   <path class="fil24" d="M6974 20899c-3233,-1759 -4112,-5343 -4436,-8929 1640,-610 2643,-790 4436,-846l0 702c-4,0 -8,0 -12,0 -391,13 -740,32 -1064,60 0,0 -1,0 -2,0 -1,0 -3,0 -5,0 -1,0 -2,0 -3,0 -1,0 -3,1 -4,1 -2,0 -4,0 -5,0 -1,0 -2,0 -3,0 -1,1 -3,1 -4,1 -1,0 -2,0 -3,0 -2,0 -3,0 -5,0 -1,0 -2,1 -3,1 -2,0 -3,0 -5,0 -1,0 -1,0 -2,0 -2,1 -4,1 -5,1 -1,0 -2,0 -3,0 -1,0 -3,0 -5,1 -1,0 -1,0 -2,0 -10,1 -19,2 -29,3l0 0c-515,47 -967,119 -1426,229 -350,83 -704,189 -1094,322 0,0 0,0 0,1l0 0c311,2930 1059,6006 3684,7641l0 812z"/>
   <path class="fil23" d="M4353 16316c-450,-1213 -669,-2513 -803,-3703l0 0 0 -1c1116,-367 1951,-498 3424,-546l0 2262 -2621 1988z"/>
   <path class="fil24" d="M4929 17568c-226,-401 -415,-821 -576,-1252l2621 -1988 0 1688 -2045 1552z"/>
   <path class="fil25" d="M6974 20087c-2625,-1635 -3373,-4711 -3684,-7641l0 0 0 -1 1 0 0 0 259 168c134,1190 353,2490 803,3703 161,431 350,851 576,1252 490,869 1149,1644 2045,2233l0 286z"/>
   <polygon class="fil26" points="6974,20087 6974,19801 "/>
   <path class="fil27" d="M3550 12613l-259 -168 0 0c394,-135 751,-241 1105,-325 455,-108 904,-179 1414,-226l0 0c10,-1 19,-2 29,-3 1,0 1,0 2,0 2,-1 4,-1 5,-1 1,0 2,0 3,0 1,0 3,0 5,-1 1,0 1,0 2,0 2,0 3,0 5,0 1,0 2,-1 3,-1 2,0 3,0 5,0 1,0 2,0 3,0 1,0 3,0 4,-1 1,0 2,0 3,0 1,0 3,0 5,0 1,0 3,-1 4,-1 1,0 2,0 3,0 2,0 4,0 5,0 1,0 2,0 2,0 324,-28 673,-47 1064,-60 4,0 8,0 12,0l0 240c-1473,48 -2308,179 -3424,546l0 1z"/>
  </g>
 </g>
</svg>
