<?xml version="1.0" encoding="UTF-8"?>
<!DOCTYPE svg PUBLIC "-//W3C//DTD SVG 1.1//EN" "http://www.w3.org/Graphics/SVG/1.1/DTD/svg11.dtd">
<!-- Creator: CorelDRAW X7 -->
<svg xmlns="http://www.w3.org/2000/svg" xml:space="preserve" width="211.667mm" height="211.667mm" version="1.1" style="shape-rendering:geometricPrecision; text-rendering:geometricPrecision; image-rendering:optimizeQuality; fill-rule:evenodd; clip-rule:evenodd"
viewBox="0 0 21167 21167"
 xmlns:xlink="http://www.w3.org/1999/xlink">
 <defs>
  <style type="text/css">
   <![CDATA[
    .fil0 {fill:none}
    .fil12 {fill:#1ABC9C}
    .fil31 {fill:#226D9C}
    .fil32 {fill:#2984BD}
    .fil14 {fill:#34495E}
    .fil15 {fill:#7F8C8D}
    .fil16 {fill:#BDC3C7}
    .fil11 {fill:#D35400}
    .fil34 {fill:#FFC229}
    .fil33 {fill:white}
    .fil19 {fill:#17A98C;fill-rule:nonzero}
    .fil37 {fill:#1F628C;fill-rule:nonzero}
    .fil38 {fill:#2577AA;fill-rule:nonzero}
    .fil21 {fill:#2F4254;fill-rule:nonzero}
    .fil8 {fill:#454545;fill-rule:nonzero}
    .fil5 {fill:#4D4D4D;fill-rule:nonzero}
    .fil22 {fill:#727E7F;fill-rule:nonzero}
    .fil23 {fill:#AAAFB3;fill-rule:nonzero}
    .fil29 {fill:#BC3F16;fill-rule:nonzero}
    .fil18 {fill:#BD4B00;fill-rule:nonzero}
    .fil28 {fill:#C59637;fill-rule:nonzero}
    .fil9 {fill:#CFCFCF;fill-rule:nonzero}
    .fil27 {fill:#D14618;fill-rule:nonzero}
    .fil20 {fill:#D5D5D5;fill-rule:nonzero}
    .fil7 {fill:#D9D9D9;fill-rule:nonzero}
    .fil24 {fill:#DBA73D;fill-rule:nonzero}
    .fil17 {fill:#DCAF78;fill-rule:nonzero}
    .fil39 {fill:#E5AE25;fill-rule:nonzero}
    .fil40 {fill:#E5BA85;fill-rule:nonzero}
    .fil3 {fill:#E5BB89;fill-rule:nonzero}
    .fil36 {fill:#E5C59F;fill-rule:nonzero}
    .fil2 {fill:#E5E5E5;fill-rule:nonzero}
    .fil6 {fill:#E6E6E6;fill-rule:nonzero}
    .fil26 {fill:#E94E1B;fill-rule:nonzero}
    .fil13 {fill:#EDEDED;fill-rule:nonzero}
    .fil4 {fill:#F2F2F2;fill-rule:nonzero}
    .fil10 {fill:#F5C386;fill-rule:nonzero}
    .fil35 {fill:#FFCF94;fill-rule:nonzero}
    .fil1 {fill:#FFD098;fill-rule:nonzero}
    .fil30 {fill:#FFDBB1;fill-rule:nonzero}
    .fil25 {fill:white;fill-rule:nonzero}
   ]]>
  </style>
 </defs>
 <g id="border">
  <metadata id="CorelCorpID_0Corel-Layer"/>
  <rect class="fil0" width="21167" height="21167"/>
 </g>
 <g id="Camada_x0020_1">
  <metadata id="CorelCorpID_1Corel-Layer"/>
  <g id="_2318314277952">
   <path class="fil1" d="M4003 11564c214,-359 282,-799 188,-1214l-309 -1359c-40,-178 -62,-360 -63,-542l-13 -1555c-3,-328 -245,-593 -547,-597 -290,-3 -533,240 -554,556l-134 2059 -2 33 -56 -164 -592 -1690 840 -3230c86,-332 -91,-677 -396,-770 -106,-33 -218,20 -270,126l-1158 2347c-21,42 -37,85 -49,131l-524 1967c-68,253 -61,522 20,770l966 2961c72,221 108,453 104,687l-25 1972 2238 29 22 -1696c2,-196 56,-387 154,-552l160 -269z"/>
   <path class="fil2" d="M1445 12783l0 0 9 -703c3,-234 -32,-467 -104,-687l-404 -1240 404 1240c72,221 108,453 104,687l-9 703zm-1124 -4865c6,-86 20,-172 43,-256l185 -696 -185 696c-23,84 -37,170 -43,256zm578 -2262c11,-32 23,-62 38,-92l1157 -2348c42,-84 123,-135 208,-135 21,0 42,3 63,10 63,19 121,49 172,88 -51,-39 -109,-69 -172,-88 -21,-7 -42,-10 -63,-10 -85,0 -166,51 -207,136l-1158 2347c-15,30 -27,60 -38,92zm1640 -2476c0,0 -1,0 -1,0 0,0 1,0 1,0z"/>
   <path class="fil3" d="M2607 12783l-1162 0 9 -703c4,-234 -32,-466 -104,-687l-404 -1240 -562 -1721c-54,-165 -75,-341 -63,-514 6,-86 20,-172 43,-256l185 -696 339 -1271c3,-13 7,-26 11,-39 11,-32 23,-62 38,-92l1158 -2347c41,-85 122,-136 207,-136 21,0 42,3 63,10 63,19 121,49 172,88 0,0 0,0 1,1 0,0 1,0 1,0 9,8 19,15 28,23l-1005 2554c-8,21 -14,43 -18,64l-326 1790c-32,173 -16,352 46,517l1356 3601 -13 1054z"/>
   <polygon class="fil4" points="1277,14309 3909,14309 3909,12783 1277,12783 "/>
   <polygon class="fil5" points="1076,17884 4110,17884 4110,14309 1076,14309 "/>
   <path class="fil6" d="M3690 14912c0,101 -82,183 -183,183 -101,0 -183,-82 -183,-183 0,-101 82,-183 183,-183 101,0 183,82 183,183z"/>
   <path class="fil6" d="M3690 15644c0,100 -82,182 -183,182 -101,0 -183,-82 -183,-182 0,-102 82,-183 183,-183 101,0 183,81 183,183z"/>
   <path class="fil6" d="M3690 16375c0,101 -82,182 -183,182 -101,0 -183,-81 -183,-182 0,-101 82,-183 183,-183 101,0 183,82 183,183z"/>
   <polygon class="fil7" points="1277,14309 2660,14309 2660,12783 1277,12783 "/>
   <polygon class="fil8" points="2660,17884 1076,17884 1076,14309 2660,14309 "/>
   <path class="fil1" d="M17118 11542c-209,-362 -272,-803 -172,-1217l327 -1355c42,-177 66,-358 69,-541l33 -1554c7,-328 253,-590 554,-590 291,0 531,247 547,563l108 2061 1 33 59 -164 613 -1682 -798 -3240c-82,-334 99,-676 405,-766 107,-31 219,23 270,129l1127 2362c20,42 36,86 48,132l499 1973c64,255 53,524 -31,771l-1004 2948c-75,220 -113,452 -113,686l0 1972 -2238 0 0 -1696c0,-196 -51,-388 -147,-554l-157 -271z"/>
   <path class="fil2" d="M17422 12783l0 -416c0,-75 -8,-150 -22,-222 14,72 22,147 22,222l0 416zm-259 -1164l-45 -77c-43,-75 -80,-153 -111,-234 31,81 68,159 111,234l45 77zm3 -2206l107 -443c18,-78 33,-157 45,-236 -12,79 -27,158 -45,236l-107 443zm1419 -471l0 -1 33 -91 -33 92zm0 -12l-1 -21 -108 -2061c-16,-316 -256,-563 -547,-563 -301,0 -547,262 -554,590l-21 995 21 -995c7,-328 253,-590 554,-590 291,0 531,247 548,563l107 2060 1 22zm473 -1288l199 -546 -277 -1127 277 1127 -199 546zm-618 -3918c0,0 0,0 0,0 0,0 0,0 0,0zm0 -2c0,-1 0,-2 0,-2 0,0 0,1 0,2zm0 -3c-6,-153 40,-299 125,-415 -85,116 -131,262 -125,415zm125 -415c0,-1 1,-2 2,-3 -1,1 -2,2 -2,3zm2 -3c0,-1 1,-2 2,-3 -1,1 -2,2 -2,3zm2 -3c1,-1 1,-2 2,-2 -1,1 -1,1 -2,2zm3 -3c0,-1 0,-1 1,-2 -1,1 -1,1 -1,2zm2 -3c0,-1 1,-1 1,-2 0,1 -1,1 -1,2zm2 -3c1,-1 1,-1 1,-1 0,0 0,0 -1,1zm2 -3c1,0 1,-1 1,-1 0,0 0,1 -1,1z"/>
   <path class="fil3" d="M18499 12783l-1077 0 0 -416c0,-75 -8,-150 -22,-222 -24,-118 -66,-230 -125,-333l-112 -193 -45 -77c-43,-75 -80,-153 -111,-234 -117,-309 -140,-654 -61,-983l220 -912 107 -443c18,-78 33,-157 45,-236 14,-101 22,-203 25,-305l11 -559 21 -995c7,-328 253,-590 554,-590 291,0 531,247 547,563l108 2061 1 21 0 12 0 -1 0 1 33 -92 26 -72 414 -1136 199 -546 -277 -1127 -521 -2113c-11,-44 -17,-88 -19,-132 0,0 0,0 0,0 0,-1 0,-2 0,-2 0,-1 0,-2 0,-2 0,-1 0,-1 0,-1 -6,-153 40,-299 125,-415 0,0 0,0 0,0 0,-1 1,-2 2,-3l0 0c0,-1 1,-2 2,-3 0,0 0,0 0,0 1,-1 1,-1 2,-2 0,0 0,-1 1,-1 0,-1 0,-1 1,-2 0,0 0,0 1,-1 0,-1 1,-1 1,-2 1,-1 1,-1 1,-1 1,-1 1,-1 1,-1 0,-1 1,-1 1,-2 1,0 1,-1 1,-1 25,-31 52,-60 83,-85l971 2566c8,21 14,43 18,65l303 1793c29,174 11,353 -53,517l-1402 3583 0 1059z"/>
   <polygon class="fil4" points="17207,14309 19840,14309 19840,12783 17207,12783 "/>
   <polygon class="fil5" points="17006,17884 20041,17884 20041,14309 17006,14309 "/>
   <path class="fil6" d="M17427 14912c0,101 82,183 182,183 102,0 183,-82 183,-183 0,-101 -81,-183 -183,-183 -100,0 -182,82 -182,183z"/>
   <path class="fil6" d="M17427 15644c0,100 82,182 182,182 102,0 183,-82 183,-182 0,-102 -81,-183 -183,-183 -100,0 -182,81 -182,183z"/>
   <path class="fil6" d="M17427 16375c0,101 82,182 182,182 102,0 183,-81 183,-182 0,-101 -81,-183 -183,-183 -100,0 -182,82 -182,183z"/>
   <polygon class="fil7" points="17207,14309 18500,14309 18500,12783 17207,12783 "/>
   <path class="fil8" d="M18500 17884l-1494 0 0 -3575 1494 0 0 3575zm-891 -1692c-100,0 -182,82 -182,183 0,101 82,182 182,182 102,0 183,-81 183,-182 0,-101 -81,-183 -183,-183zm0 -731c-100,0 -182,81 -182,183 0,100 82,182 182,182 102,0 183,-82 183,-182 0,-102 -81,-183 -183,-183zm0 -732c-100,0 -182,82 -182,183 0,101 82,183 182,183 102,0 183,-82 183,-183 0,-101 -81,-183 -183,-183z"/>
   <path class="fil9" d="M17609 15095c-100,0 -182,-82 -182,-183 0,-101 82,-183 182,-183 102,0 183,82 183,183 0,101 -81,183 -183,183z"/>
   <path class="fil9" d="M17609 15826c-100,0 -182,-82 -182,-182 0,-102 82,-183 182,-183 102,0 183,81 183,183 0,100 -81,182 -183,182z"/>
   <path class="fil9" d="M17609 16557c-100,0 -182,-81 -182,-182 0,-101 82,-183 182,-183 102,0 183,82 183,183 0,101 -81,182 -183,182z"/>
   <path class="fil10" d="M6396 6099l0 556c0,108 261,193 513,284l22 8 21 -8c253,-91 513,-176 513,-284l0 -556 -1069 0z"/>
   <path class="fil1" d="M6931 6394l-37 0 -25 0c-284,0 -375,-90 -667,-528 -73,-109 -114,-302 -136,-512 -69,11 -148,-95 -175,-242 -27,-147 8,-278 78,-292l4 0c22,-4 46,5 67,23 33,78 52,162 57,246 28,0 9,-18 22,-25 -171,-1185 308,-1185 609,-1184 20,0 38,1 57,0l146 5 146 -5c18,1 37,0 56,0 301,-1 781,-1 610,1184 13,7 -6,25 21,25 6,-84 25,-168 57,-246 22,-18 46,-27 68,-23l3 0c71,14 106,145 78,292 -27,147 -105,253 -175,242 -22,210 -62,403 -135,512 -292,438 -384,528 -668,528l-24 0 -37 0z"/>
   <path class="fil11" d="M6931 3527c-128,0 -240,9 -359,28 -135,21 -238,41 -352,117 -124,85 -230,247 -259,394 -45,228 0,522 12,750l0 4c91,-11 119,185 124,269l39 -4c-182,-1263 314,-994 627,-938 267,47 369,44 413,40 15,-1 23,-2 29,-1 21,4 -88,-8 -171,-74 9,0 169,7 191,3 12,-2 -88,-11 -115,-41 50,5 149,-10 178,-11 249,-2 566,129 438,1022l38 4c6,-84 34,-280 125,-269l0 -4c12,-228 57,-522 12,-750 -29,-147 -135,-309 -259,-394 -115,-76 -217,-96 -353,-117 -118,-19 -230,-28 -358,-28z"/>
   <polygon class="fil12" points="5508,11706 8354,11706 8354,7897 5508,7897 "/>
   <path class="fil12" d="M4981 8232l0 -517c0,-253 162,-477 402,-556l814 -339 1 -1 430 470 281 -350 22 8 21 -8 281 350 431 -470 1 1 813 339c241,79 403,303 403,556l37 400 -564 178 -3373 -61z"/>
   <path class="fil13" d="M6931 6947l-303 342 -430 -470 198 -221 0 57c0,108 282,201 535,292z"/>
   <path class="fil13" d="M6931 6947l302 342 431 -470 -199 -221 0 57c0,108 -281,201 -534,292z"/>
   <polygon class="fil13" points="4981,8445 5508,8445 5508,8204 4981,8204 "/>
   <path class="fil13" d="M6931 7339c-49,0 -88,-39 -88,-87 0,-49 39,-88 88,-88 48,0 88,39 88,88 0,48 -40,87 -88,87z"/>
   <path class="fil13" d="M6931 7657c-49,0 -88,-39 -88,-88 0,-48 39,-87 88,-87 48,0 88,39 88,87 0,49 -40,88 -88,88z"/>
   <path class="fil13" d="M6931 7974c-49,0 -88,-39 -88,-87 0,-49 39,-88 88,-88 48,0 88,39 88,88 0,48 -40,87 -88,87z"/>
   <polygon class="fil14" points="5675,17659 6813,17659 6813,11706 5675,11706 "/>
   <polygon class="fil14" points="7049,17659 8187,17659 8187,11706 7049,11706 "/>
   <polygon class="fil14" points="6652,12188 7210,12188 7210,11706 6652,11706 "/>
   <path class="fil15" d="M6244 17358c-329,0 -595,39 -595,515l1189 0c0,-498 -266,-515 -594,-515z"/>
   <polygon class="fil16" points="5649,18015 6838,18015 6838,17818 5649,17818 "/>
   <path class="fil15" d="M7618 17358c328,0 594,39 594,515l-1189 0c0,-498 266,-515 595,-515z"/>
   <polygon class="fil16" points="7023,18015 8213,18015 8213,17818 7023,17818 "/>
   <polygon class="fil1" points="5508,11706 5079,11700 5005,8445 5508,8445 "/>
   <polygon class="fil1" points="8639,11408 9066,11365 8855,8115 8354,8159 "/>
   <path class="fil1" d="M5362 12244l53 91 11 232c2,34 16,65 41,88 25,22 57,34 91,32 39,-2 69,-35 67,-73l-24 -523c-3,-56 -13,-112 -30,-166l-74 -232 -418 7 -131 303c-39,89 -59,185 -59,282l-1 278c0,40 12,79 34,112l243 351c18,27 53,37 82,24 33,-14 58,-41 71,-74 12,-33 11,-70 -4,-102l-129 -280 0 -80c0,-58 23,-115 64,-156l113 -114z"/>
   <path class="fil1" d="M8832 11931l-45 95 9 233c2,33 -10,66 -33,90 -22,25 -54,39 -87,41 -39,2 -72,-29 -73,-68l-22 -522c-3,-57 2,-113 15,-168l53 -238 417 -29 157 290c47,85 75,179 84,276l25 277c4,39 -4,79 -24,114l-211 371c-16,28 -49,41 -80,31 -34,-12 -61,-36 -77,-68 -15,-32 -17,-69 -5,-102l104 -289 -7 -80c-5,-59 -33,-113 -78,-150l-122 -104z"/>
   <path class="fil2" d="M6813 17645l0 0 0 -5457 118 0 -118 0 0 5457zm118 -5939l-1429 0 1429 0zm-1855 -148l-71 -3113 -24 0 527 0 -503 0 71 3113zm1855 -4611l-22 -8 0 0c-39,-14 -80,-28 -119,-43 39,14 79,29 119,43l22 8zm-535 -290c0,0 0,0 0,0 0,0 0,0 0,0zm0 0c0,-1 0,-1 0,-2l0 0c0,1 0,1 0,2zm-154 -730c-13,-20 -26,-40 -40,-61l0 0c14,21 27,41 40,61zm-186 -572l0 0c4,0 7,-1 10,-1l0 0c-3,0 -6,1 -10,1zm-163 -234c0,-1 0,-2 0,-2 0,0 0,1 0,2zm-2 -9l0 0c-27,-147 8,-278 78,-292l4 0 -4 0c-70,14 -105,145 -78,292l0 0zm206 -23c0,-1 0,-3 0,-4 0,1 0,3 0,4zm0 0l9 -1c-2,0 -5,1 -9,1zm0 -5l0 0 0 0zm-3 -32c-5,-45 -14,-90 -27,-134 14,43 23,94 27,134zm-121 -232l-1 -4c-11,-228 -56,-522 -11,-750 28,-140 126,-296 243,-382 -117,86 -215,242 -243,382 -45,228 0,522 12,750l0 4zm599 -1265c119,-19 231,-28 359,-28l0 0c-128,0 -240,9 -359,28z"/>
   <path class="fil17" d="M6931 6947l-22 -8c-40,-14 -80,-29 -119,-43 -205,-74 -391,-152 -394,-239 0,0 0,0 0,0 0,0 0,0 0,0 0,-1 0,-1 0,-2l0 -513c159,203 263,252 473,252l25 0 37 0 0 553z"/>
   <path class="fil3" d="M6894 6394l-25 0c-210,0 -314,-49 -473,-252l0 0c-45,-58 -95,-129 -154,-215 -13,-20 -26,-40 -40,-61l0 0c-73,-109 -114,-302 -136,-512 0,0 0,0 0,0l0 0c-3,0 -6,1 -10,1 -66,0 -136,-99 -163,-234 0,-1 0,-2 0,-2 -1,-2 -1,-4 -2,-7l0 0c-27,-147 8,-278 78,-292l4 0c2,-1 5,-1 7,-1 41,0 69,44 87,99 13,44 22,89 27,134 1,12 2,22 3,32l0 0c0,0 0,1 0,1 0,1 0,3 0,4l0 0c4,0 7,-1 9,-1l30 -3c-121,-835 56,-1000 280,-1000 114,0 241,43 347,62 65,11 121,20 168,26l0 2221 -37 0z"/>
   <path class="fil18" d="M6097 5089l0 0c0,-1 0,-3 0,-4 0,0 0,-1 0,-1l0 0c-1,-10 -2,-20 -3,-32 -4,-40 -13,-91 -27,-134 -18,-55 -46,-99 -87,-99 -2,0 -5,0 -7,1l0 0 0 -4c-12,-228 -57,-522 -12,-750 28,-140 126,-296 243,-382 6,-4 11,-8 16,-12 114,-76 217,-96 352,-117l0 0c119,-19 231,-28 359,-28l0 646c-47,-6 -103,-15 -168,-26 -106,-19 -233,-62 -347,-62 -224,0 -401,165 -280,1000l-30 3 -9 1z"/>
   <polygon class="fil19" points="6931,11706 5508,11706 5508,8241 6931,8267 "/>
   <path class="fil19" d="M6931 8267l-1423 -26 0 -37 -527 0 0 -489c0,-253 162,-477 402,-556l814 -339 1 -1 430 470 303 -342 0 217c0,0 0,0 0,0 -49,0 -88,39 -88,88 0,48 39,87 88,87 0,0 0,0 0,0l0 143c0,0 0,0 0,0 -49,0 -88,39 -88,87 0,49 39,88 88,88 0,0 0,0 0,0l0 142c0,0 0,0 0,0 -49,0 -88,39 -88,88 0,48 39,87 88,87 0,0 0,0 0,0l0 293zm0 -1320c-7,-3 -14,-5 -22,-8l0 0 22 8z"/>
   <path class="fil20" d="M6628 7289l-430 -470 198 -221 0 57c0,1 0,1 0,2 0,0 0,0 0,0 0,0 0,0 0,0 3,87 189,165 394,239 39,15 80,29 119,43 8,3 15,5 22,8l0 0 -303 342z"/>
   <polygon class="fil20" points="5508,8445 4981,8445 4981,8204 5508,8204 "/>
   <path class="fil20" d="M6931 7339c-49,0 -88,-39 -88,-87 0,-49 39,-88 88,-88 0,0 0,0 0,0l0 175c0,0 0,0 0,0z"/>
   <path class="fil20" d="M6931 7657c-49,0 -88,-39 -88,-88 0,-48 39,-87 88,-87 0,0 0,0 0,0l0 175c0,0 0,0 0,0z"/>
   <path class="fil20" d="M6931 7974c-49,0 -88,-39 -88,-87 0,-49 39,-88 88,-88 0,0 0,0 0,0l0 175c0,0 0,0 0,0z"/>
   <path class="fil21" d="M5675 17653l0 -5947 1138 0 -161 0 0 482 161 0 0 5457c-74,-276 -301,-287 -569,-287 -269,0 -496,26 -569,295z"/>
   <polygon class="fil21" points="6931,12188 6652,12188 6652,11706 6931,11706 "/>
   <path class="fil22" d="M6837 17818l-1187 0c3,-63 12,-118 25,-165l0 0c73,-269 300,-295 569,-295 268,0 495,11 569,287l0 0 0 0c13,49 21,106 24,173z"/>
   <polygon class="fil23" points="6838,18015 5649,18015 5649,17818 5650,17818 6837,17818 6838,17818 "/>
   <polygon class="fil3" points="5508,11706 5502,11706 5497,11693 5079,11700 5076,11558 5005,8445 5508,8445 "/>
   <path class="fil2" d="M5217 13055c-20,-1 -40,-11 -52,-29l-243 -351c-22,-33 -34,-72 -34,-111l0 0c0,39 12,78 34,111l243 351c12,18 32,28 52,29zm335 -368c-32,0 -62,-11 -85,-32 -5,-5 -10,-10 -14,-16 4,6 9,11 14,16 23,21 53,32 85,32 0,0 1,0 1,0 0,0 -1,0 -1,0zm47 -16c17,-14 27,-35 26,-57l-7 -142 7 141c1,23 -9,44 -26,58zm-173 -104l0 0 -11 -232 -53 -91 0 0 53 91 11 232 0 0zm-538 -143l1 -139c0,-97 20,-193 59,-282l131 -303 0 0 -131 303c-39,89 -59,185 -59,282l-1 139z"/>
   <path class="fil3" d="M5220 13055c-1,0 -2,0 -3,0 -20,-1 -40,-11 -52,-29l-243 -351c-22,-33 -34,-72 -34,-111l0 -140 1 -139c0,-97 20,-193 59,-282l131 -303 418 -7 5 13 0 0 69 219c17,54 27,110 30,166l17 381 7 142c1,22 -9,43 -26,57 -11,9 -25,16 -41,16 -2,0 -3,0 -5,0 0,0 -1,0 -1,0 -32,0 -62,-11 -85,-32 -5,-5 -10,-10 -14,-16 -16,-20 -26,-45 -27,-72l0 0 -11 -232 -53 -91 0 0 -113 114c-41,41 -64,98 -64,156l0 80 129 280c15,32 16,69 4,102 -13,33 -38,60 -71,74 -9,4 -18,5 -27,5z"/>
   <polygon class="fil13" points="8354,8362 8943,8293 8916,8078 8354,8149 "/>
   <polygon class="fil1" points="13025,11592 12684,11553 13008,8204 13507,8269 "/>
   <path class="fil1" d="M12856 12025l34 80 -16 190c-2,27 6,54 24,75 18,21 43,34 70,36 32,3 60,-21 63,-52l36 -428c3,-46 1,-92 -7,-138l-35 -196 -341 -39 -139 232c-41,69 -67,145 -78,224l-30 226c-5,32 1,65 16,94l160 311c12,24 39,35 64,28 28,-8 52,-27 65,-52 14,-26 17,-56 8,-84l-75 -241 9 -65c6,-47 31,-91 69,-120l103 -81z"/>
   <path class="fil24" d="M14642 4245c148,-8 1240,-15 1075,1357 -96,791 -42,1064 224,1335 -151,186 -550,438 -1303,350 -753,88 -1152,-164 -1303,-350 266,-271 320,-544 224,-1335 -168,-1396 966,-1364 1081,-1357l2 0z"/>
   <path class="fil10" d="M14207 6571l0 515c0,100 426,229 431,232 6,-3 431,-132 431,-232l0 -515 -862 0z"/>
   <path class="fil1" d="M15485 5447l-3 0c-20,-4 -40,5 -60,20 -26,63 -42,131 -48,200l-2 16 0 1c-24,0 -7,-16 -19,-22l2 -9c87,-620 -28,-868 -191,-968l-25 -14 -3 -1c-103,-52 -222,-51 -319,-51 -18,0 -34,0 -50,0 -3,-1 -97,4 -122,4l-14 0c-25,0 -119,-5 -122,-4 -16,0 -32,0 -50,0 -97,0 -216,-1 -319,51l-3 1 -25 14c-163,100 -278,348 -190,968l1 9c-12,6 5,22 -19,22l0 -1 -2 -16c-6,-69 -22,-137 -48,-200l-60 -20 -3 0c-62,12 -93,128 -69,257l2 9 9 38 12 35 2 7 7 14c28,63 67,104 105,110l17 0 1 0 0 0c19,185 84,326 149,422 253,379 491,498 612,501 121,-3 359,-122 612,-501 65,-96 130,-237 149,-422l1 0 0 0 17 0c38,-6 76,-47 104,-108l8 -16 2 -7 12 -35 9 -38 2 -9c24,-129 -7,-245 -69,-257z"/>
   <path class="fil13" d="M14638 7318c-223,-80 -431,-185 -431,-280l0 -50 -215 217 380 414 266 -301z"/>
   <polygon class="fil25" points="15284,7206 15284,7206 14905,7619 "/>
   <path class="fil25" d="M14638 7318l0 0 -266 301 0 0c0,0 229,-255 266,-301z"/>
   <polygon class="fil25" points="13992,7206 13992,7205 13991,7207 13991,7207 13991,7207 "/>
   <polygon class="fil25" points="15286,7207 15285,7207 15284,7205 15284,7206 15285,7207 "/>
   <path class="fil25" d="M14905 7619l-267 -301c38,46 267,301 267,301z"/>
   <polygon class="fil25" points="14372,7619 13992,7206 "/>
   <path class="fil13" d="M15284 7205l-215 -217 0 50c0,92 -197,194 -412,273l-19 7 267 301 379 -413 0 -1z"/>
   <path class="fil24" d="M15504 5181l-9 -19 -169 -532 -616 -174 -50 18 -680 151 -162 637 -10 21c0,0 254,35 524,-62 -11,29 -39,62 -39,62 0,0 129,-36 210,-78 123,-63 221,-144 324,-241 320,168 677,217 677,217z"/>
   <path class="fil26" d="M14464 17941c-8,105 -79,144 -347,144 -320,0 -365,-34 -365,-141 2,-52 12,-120 10,-211 -10,-309 106,-559 337,-566 233,-7 322,191 347,517 8,110 25,196 18,257z"/>
   <path class="fil26" d="M14812 17941c8,105 79,144 347,144 320,0 365,-34 365,-141 -2,-52 -12,-120 -10,-211 10,-309 -106,-559 -337,-566 -233,-7 -322,191 -347,517 -8,110 -25,196 -18,257z"/>
   <path class="fil1" d="M13884 17395c9,434 465,382 447,-8l86 -3171 -842 19 309 3160z"/>
   <path class="fil1" d="M15392 17395c-9,434 -465,382 -447,-8l-86 -3171 842 19 -309 3160z"/>
   <path class="fil26" d="M15425 10007l-1574 0c-533,1000 -573,2603 -880,4319l3334 0c-307,-1716 -347,-3319 -880,-4319z"/>
   <path class="fil27" d="M14465 17941c-8,105 -79,144 -348,144 -319,0 -365,-34 -365,-141 69,-81 203,-135 358,-135 154,0 289,54 355,132z"/>
   <path class="fil27" d="M14811 17941c8,105 79,144 348,144 319,0 365,-34 365,-141 -69,-81 -203,-135 -358,-135 -154,0 -289,54 -355,132z"/>
   <path class="fil26" d="M16317 8223c-11,-48 -26,-101 -44,-156 -28,-90 -68,-186 -121,-274 -68,-114 -157,-215 -278,-272l-588 -314 -2 0 -380 413c0,0 -228,-257 -265,-303 -37,46 -268,303 -268,303l-379 -413 -2 0 -588 314c-121,57 -211,158 -279,272 -169,281 -202,645 -204,656l566 158 555 2246 1196 0 568 -2298 553 -106c0,-7 -9,-99 -40,-226z"/>
   <polygon class="fil1" points="16321,11430 15977,11437 15835,8549 16321,8456 "/>
   <path class="fil1" d="M16104 11884l-41 76 -2 191c-1,28 -12,54 -31,73 -20,19 -46,30 -74,29 -32,0 -57,-26 -57,-58l5 -429c1,-46 7,-92 20,-137l54 -192 342 -6 116 244c35,72 54,150 57,230l9 228c1,33 -8,65 -26,92l-188 295c-14,22 -42,31 -67,21 -27,-10 -49,-31 -60,-58 -11,-27 -11,-57 0,-84l98 -233 -3 -65c-1,-48 -22,-94 -57,-127l-95 -90z"/>
   <path class="fil2" d="M14117 18085l0 0c-7,0 -14,0 -21,0 7,0 14,0 21,0 0,0 0,0 0,0 0,0 0,0 0,0 2,0 5,0 7,0 -2,0 -5,0 -7,0zm-364 -164c3,-43 9,-95 9,-159 0,64 -6,116 -9,159zm9 -192c0,0 0,0 0,-1 0,1 0,1 0,1zm-1 -5c0,0 0,0 0,0 0,0 0,0 0,0zm688 -4c0,-1 0,-1 0,-1 0,0 0,0 0,1zm0 -1c-1,-11 -2,-23 -3,-35 0,-4 -1,-8 -1,-11 0,3 1,7 1,11 1,12 2,24 3,35zm-4 -46c0,-1 0,-2 0,-3 0,1 0,2 0,3zm-111 -397l0 0 80 -2950 224 0 -224 0 -80 2950z"/>
   <path class="fil27" d="M14117 18085c-7,0 -14,0 -21,0 -300,-1 -344,-36 -344,-141 0,0 0,0 0,0 0,-8 0,-15 1,-23 3,-43 9,-95 9,-159 0,-10 0,-19 0,-29 0,-2 0,-3 0,-4 0,0 0,0 0,-1 -1,-1 -1,-2 -1,-4 0,0 0,0 0,0 -4,-178 35,-334 113,-436l10 107c5,209 113,305 221,305 118,0 235,-111 226,-313l3 -111 0 0 0 3c63,87 97,220 111,391 0,1 0,2 0,3l0 0c0,3 1,7 1,11 1,12 2,24 3,35l0 0c0,0 0,0 0,1 8,92 21,166 15,220 -67,-78 -200,-131 -354,-131 -155,0 -289,54 -358,135 0,107 46,141 365,141 0,0 0,0 0,0z"/>
   <path class="fil3" d="M14105 17700c-108,0 -216,-96 -221,-305l-10 -107 0 0 -290 -2962 830 0 -80 2950 -3 111c9,202 -108,313 -226,313z"/>
   <path class="fil2" d="M12677 12668l0 0c28,-8 52,-27 65,-52 14,-26 17,-56 8,-84 9,28 6,58 -8,84 -13,25 -37,44 -65,52l0 0zm-64 -27c0,0 0,0 0,-1l-160 -311c0,-1 -1,-2 -2,-3 1,1 2,2 2,3l160 311c0,1 0,1 0,1zm360 -235c-2,0 -3,0 -5,0 0,0 -1,0 -1,0 0,0 1,0 1,0 2,0 3,0 5,0l0 0zm-99 -102c0,-3 0,-6 0,-9 0,3 0,6 0,9zm0 -9l16 -190 -16 190zm-189 -77c4,-24 13,-47 26,-67 -13,20 -22,43 -26,67zm-198 -302c14,-45 33,-90 58,-131 -25,41 -44,86 -58,131zm581 -33c1,-32 -2,-64 -8,-95 6,31 9,63 8,95zm-43 -291l0 0 -341 -39 341 39 434 -2992 26 7 352 1426 0 0 -352 -1426 -26 -7 -434 2992zm-341 -39l299 -3086 0 0 -299 3086z"/>
   <polygon class="fil3" points="13025,11592 12684,11553 12983,8467 13459,8600 "/>
   <path class="fil3" d="M12662 12670c-20,0 -39,-10 -49,-29 0,0 0,0 0,-1l-160 -311c0,-1 -1,-2 -2,-3 -13,-28 -18,-60 -14,-91l30 -226c4,-32 11,-63 20,-93 14,-45 33,-90 58,-131l0 0 139 -232 341 39 35 196 0 0c6,31 9,63 8,95 0,14 0,29 -1,43l-36 428c-3,30 -28,52 -58,52 -2,0 -3,0 -5,0 0,0 -1,0 -1,0 -27,-2 -52,-15 -69,-36l0 0c0,0 -1,0 -1,-1 -15,-18 -23,-41 -23,-65 0,-3 0,-6 0,-9l0 0 16 -190 0 0 -34 -80 -103 81 0 0c-17,12 -31,28 -42,45 -13,20 -22,43 -26,67 0,3 -1,5 -1,8l-9 65 75 241 0 0c9,28 6,58 -8,84 -13,25 -37,44 -65,52l0 0c-5,1 -10,2 -15,2z"/>
   <path class="fil2" d="M14371 7620l-306 -333c1,0 2,0 2,0l305 332 -305 -332 0 0 305 332 266 -301c0,0 0,0 -1,0 1,0 1,0 1,0l0 0 -266 301 0 0c0,0 30,-33 69,-77 -40,44 -70,78 -70,78zm-1033 -680c0,0 -1,0 -1,0 0,0 1,0 1,0zm-1 -1c-1,-1 -1,-1 -2,-2l0 0c1,1 1,1 2,2zm-2 -2c186,-189 268,-380 268,-748 0,368 -82,559 -268,748zm233 -1258c-2,-25 -5,-51 -9,-77 -153,-1272 775,-1358 1027,-1358 2,0 4,0 6,0 -2,0 -3,0 -5,0 -253,0 -1181,86 -1028,1358 4,26 7,52 9,77z"/>
   <path class="fil28" d="M14067 7287l0 0 -75 -81 75 81c0,0 -1,0 -2,0l-73 -80 -2 0 -89 48c-290,-71 -472,-204 -563,-315 0,0 -1,0 -1,0 0,0 0,-1 0,-1 -1,-1 -1,-1 -2,-2l0 0c186,-189 268,-380 268,-748 0,-141 -12,-307 -35,-510 -2,-25 -5,-51 -9,-77 -153,-1272 775,-1358 1028,-1358 2,0 3,0 5,0 21,0 36,0 46,1l0 234 -658 146 -162 637 -10 21c0,0 31,4 84,5 0,105 10,225 30,365l1 9c-12,6 5,22 -19,22l0 -1 -2 -16c-6,-69 -22,-137 -48,-200l-60 -20 -3 0c-62,12 -93,128 -69,257l2 9 9 38 12 35 2 7 7 14c28,63 67,104 105,110l17 0 1 0 0 0c19,185 84,326 149,422 62,93 123,169 181,233l0 416 -215 217 75 82zm-75 -82l-1 2 0 0 0 0 1 -1 0 -1z"/>
   <path class="fil17" d="M14638 7318c0,0 0,0 -1,0 -222,-80 -430,-185 -430,-280l0 -466c181,197 340,266 431,268l0 478z"/>
   <path class="fil3" d="M14638 6840c-91,-2 -250,-71 -431,-268 -58,-64 -119,-140 -181,-233 -65,-96 -130,-237 -149,-422l0 0 -1 0 -17 0c-38,-6 -77,-47 -105,-110l-7 -14 -2 -7 -12 -35 -9 -38 -2 -9c-24,-129 7,-245 69,-257l3 0 60 20c26,63 42,131 48,200l2 16 0 1c24,0 7,-16 19,-22l-1 -9c-20,-140 -30,-260 -30,-365 10,1 21,1 33,1 99,0 250,-12 407,-68 -11,29 -39,62 -39,62 0,0 129,-36 210,-78 48,-24 93,-52 135,-82l0 1717z"/>
   <path class="fil2" d="M14602 7360c17,-19 29,-34 36,-42l0 0c-7,9 -20,23 -36,42z"/>
   <path class="fil20" d="M14372 7619l-305 -332 -75 -82 215 -217 0 50c0,95 208,200 430,280 1,0 1,0 1,0l-266 301z"/>
   <path class="fil2" d="M14372 7619l0 0 266 -301 0 0c-7,8 -19,23 -36,42 -42,49 -110,124 -161,182 -39,44 -69,77 -69,77z"/>
   <polygon class="fil2" points="13991,7207 13991,7207 13992,7205 13992,7206 13991,7207 "/>
   <polygon class="fil2" points="14372,7619 14067,7287 13992,7206 14067,7287 "/>
   <path class="fil28" d="M13925 5289c-12,0 -23,0 -33,-1 -53,-1 -84,-5 -84,-5l10 -21 162 -637 658 -146 0 644c-42,30 -87,58 -135,82 -81,42 -210,78 -210,78 0,0 28,-33 39,-62 -157,56 -308,68 -407,68z"/>
   <path class="fil27" d="M14638 14326l-1667 0c304,-1700 347,-3290 867,-4291l-1 -2 0 0 203 820 598 0 0 3473z"/>
   <path class="fil29" d="M14117 18085c0,0 0,0 0,0 -319,0 -365,-34 -365,-141 69,-81 203,-135 358,-135 154,0 287,53 354,131 0,0 0,0 0,0l1 1 0 0c-8,105 -78,144 -341,144 -2,0 -5,0 -7,0z"/>
   <path class="fil27" d="M14638 10853l-598 0 -203 -820 -352 -1426 -26 -7 -476 -133 0 0 -64 -18c2,-11 35,-375 204,-656 68,-114 158,-215 279,-272l499 -266 0 0 89 -48 2 0 73 80 306 333c0,0 30,-34 70,-78 51,-58 119,-133 161,-182 16,-19 29,-33 36,-42l0 3535z"/>
   <polygon class="fil30" points="11065,17566 11375,17563 11430,16338 11029,16338 "/>
   <polygon class="fil30" points="10654,17565 10343,17563 10289,16338 10690,16338 "/>
   <polygon class="fil31" points="11045,17749 11400,17749 11400,17564 11045,17564 "/>
   <polygon class="fil31" points="10315,17749 10670,17749 10670,17564 10315,17564 "/>
   <polygon class="fil32" points="11006,15107 10190,15107 10190,16784 10795,16784 10795,15730 10920,15730 10920,16784 11525,16784 11525,15107 "/>
   <path class="fil32" d="M10492 17666c-175,0 -316,20 -316,273l632 0c0,-264 -141,-273 -316,-273z"/>
   <polygon class="fil16" points="10176,18015 10808,18015 10808,17910 10176,17910 "/>
   <path class="fil32" d="M11223 17666c175,0 316,20 316,273l-632 0c0,-264 141,-273 316,-273z"/>
   <polygon class="fil16" points="10907,18015 11539,18015 11539,17910 10907,17910 "/>
   <polygon class="fil33" points="10412,17635 10572,17635 10572,17600 10412,17600 "/>
   <polygon class="fil33" points="10412,17733 10572,17733 10572,17698 10412,17698 "/>
   <polygon class="fil33" points="10412,17803 10572,17803 10572,17768 10412,17768 "/>
   <polygon class="fil33" points="11143,17635 11303,17635 11303,17600 11143,17600 "/>
   <polygon class="fil33" points="11143,17733 11303,17733 11303,17698 11143,17698 "/>
   <polygon class="fil33" points="11143,17803 11303,17803 11303,17768 11143,17768 "/>
   <path class="fil30" d="M9297 13514l-116 -619 -3 0 30 -118c8,-29 11,-59 11,-89l-3 -278c-1,-21 -17,-38 -38,-37l-47 20 -19 47 1 124 -26 50 -63 -57c-23,-21 -37,-50 -39,-81l-2 -43 60 -152 -1 -54 -40 -37 -43 15 -118 194c-11,18 -16,38 -15,60l9 147c3,52 17,102 40,148l79 157 0 0 49 638c7,67 60,173 229,173l68 -207 -3 -1z"/>
   <polygon class="fil30" points="9814,13352 9204,13329 9232,13722 9843,13767 "/>
   <path class="fil30" d="M12404 13514l116 -619 3 0 -30 -118c-7,-29 -11,-59 -11,-89l4 -278c0,-21 17,-38 38,-37l47 20 19 47 -2 124 26 50 63 -57c23,-21 37,-50 39,-81l2 -43 -60 -152 2 -54 39 -37 43 15 118 194c11,18 17,38 15,60l-9 147c-3,52 -17,102 -40,148l-79 157 0 0 -49 638c-6,67 -59,173 -228,173l-68 -207 2 -1z"/>
   <polygon class="fil30" points="11887,13352 12497,13329 12470,13722 11859,13767 "/>
   <polygon class="fil34" points="10858,13351 10573,13321 10101,13331 9426,13318 9471,13848 10100,13886 10101,14027 10101,15325 11614,15325 11614,14027 11615,13886 12244,13848 12289,13318 11614,13331 11142,13321 "/>
   <path class="fil35" d="M10573 13351l0 -410 569 0 0 410c-89,216 -460,230 -569,0z"/>
   <path class="fil30" d="M10858 11596c-367,0 -665,278 -709,672 -27,-34 -62,-52 -97,-48 -68,7 -112,102 -98,212 15,109 112,215 221,183l3 -2c92,335 360,597 680,597 319,0 587,-262 680,-597l2 2c109,32 206,-74 221,-183 15,-110 -30,-205 -98,-212 -35,-4 -70,14 -97,48 -44,-394 -342,-672 -708,-672z"/>
   <path class="fil11" d="M10858 11774c-205,-1 -646,106 -667,529 -63,-16 -16,-19 -68,-60 -31,-367 146,-715 513,-791 28,-6 -54,-78 61,-238 65,205 345,231 387,239 387,75 538,460 508,790 -52,41 -5,44 -68,60 -21,-423 -462,-530 -666,-529z"/>
   <path class="fil2" d="M10497 17564l-2 0 -152 -1 -34 -779 -119 0 119 0 34 779 154 1zm-396 -3537l-1 -141 -629 -38 -9 -109 0 0 9 109 629 38 1 141zm-673 -689l-165 -6 -82 -437 82 437 165 6 -2 -20 0 0 2 20zm-474 -427l0 0 -79 -157c-23,-46 -37,-96 -40,-148l-9 -147c0,-2 0,-4 0,-6 0,2 0,4 0,6l9 147c3,52 17,102 40,148l79 157 0 0z"/>
   <polygon class="fil3" points="9087,12614 9024,12557 9087,12614 9113,12564 "/>
   <polygon class="fil36" points="10654,17564 10497,17564 10343,17563 10309,16784 10677,16784 10677,16784 "/>
   <path class="fil37" d="M10315 17686l0 -122 355 0 0 119c-51,-16 -112,-17 -178,-17 -66,0 -127,3 -177,20zm97 -86l0 35 160 0 0 -35 -160 0z"/>
   <polygon class="fil38" points="10795,16784 10190,16784 10190,15325 10851,15325 10851,15730 10795,15730 "/>
   <path class="fil38" d="M10806 17910l-628 0c7,-135 59,-197 137,-224l0 0c50,-17 111,-20 177,-20 66,0 127,1 178,17l0 0c78,24 129,86 136,227zm-394 -142l0 35 160 0 0 -35 -160 0zm0 -70l0 35 160 0 0 -35 -160 0z"/>
   <polygon class="fil23" points="10808,18015 10176,18015 10176,17910 10178,17910 10806,17910 10808,17910 "/>
   <polygon class="fil2" points="10412,17635 10572,17635 10572,17600 10412,17600 "/>
   <polygon class="fil2" points="10412,17733 10572,17733 10572,17698 10412,17698 "/>
   <polygon class="fil2" points="10412,17803 10572,17803 10572,17768 10412,17768 "/>
   <path class="fil36" d="M9232 13722c-169,0 -222,-106 -229,-173l-49 -638 0 0 -79 -157c-23,-46 -37,-96 -40,-148l-9 -147c0,-2 0,-4 0,-6 0,-19 5,-38 15,-54l118 -194 43 -15 40 37 1 54 -60 152 2 43c2,31 16,60 39,81l0 0 63 57 26 -50 -1 -124 19 -47 47 -20c0,0 0,0 0,0 21,0 37,16 38,37l3 278c0,26 -2,52 -8,78 -1,3 -2,7 -3,11l-30 118 3 0 82 437 -59 -3 28 393z"/>
   <polygon class="fil36" points="9462,13739 9462,13739 9232,13722 9232,13722 9204,13329 9263,13332 9428,13338 "/>
   <path class="fil39" d="M10851 15325l-750 0 0 -1298 -1 -141 -629 -38 -9 -109 -34 -401 -2 -20 675 13 472 -10 0 30c52,110 165,164 278,167l0 1807z"/>
   <path class="fil2" d="M10186 12643c0,-1 0,-1 0,-2 0,1 0,1 0,2zm-1 -2c-2,-9 -5,-19 -7,-28l-3 2c-13,4 -26,6 -39,6 -92,0 -169,-94 -182,-189 -14,-110 30,-205 98,-212 2,-1 4,-1 6,-1 -2,0 -4,0 -6,1 -68,7 -112,102 -98,212 13,95 90,189 182,189 13,0 26,-2 39,-6l3 -2c2,9 5,19 7,28zm-62 -399l0 0c-31,-366 147,-714 513,-790 -366,76 -544,424 -513,790z"/>
   <path class="fil40" d="M10851 13518c-113,-3 -226,-57 -278,-167l0 -214c85,46 179,72 278,73l0 308z"/>
   <path class="fil36" d="M10851 13210c-99,-1 -193,-27 -278,-73l0 -3c-179,-96 -320,-276 -387,-491 0,-1 0,-1 0,-2 0,0 0,0 -1,0 -2,-9 -5,-19 -7,-28l-3 2c-13,4 -26,6 -39,6 -92,0 -169,-94 -182,-189 -14,-110 30,-205 98,-212 2,-1 4,-1 6,-1 1,0 2,0 3,0 27,0 52,14 75,37l-13 -13c0,0 0,0 0,-1l0 0c0,1 0,1 0,1 52,41 5,44 68,60 21,-418 452,-528 660,-529l0 1436zm-709 -948l0 0z"/>
   <path class="fil2" d="M10636 11452c21,-5 -21,-47 8,-137 -29,90 13,132 -8,137zm215 -67c-61,-32 -117,-79 -146,-150 29,70 85,117 146,149l0 1z"/>
   <path class="fil18" d="M10191 12303c-63,-16 -16,-19 -68,-60 0,0 0,0 0,-1 -31,-366 147,-714 513,-790l0 0c21,-5 -21,-47 8,-137 9,-29 25,-62 53,-101 2,7 5,14 8,21 29,71 85,118 146,150l0 389c-208,1 -639,111 -660,529z"/>
  </g>
 </g>
</svg>
